ffmpeg version 3.4.8-0ubuntu0.2 Copyright (c) 2000-2020 the FFmpeg developers
  built with gcc 7 (Ubuntu 7.5.0-3ubuntu1~18.04)
  configuration: --prefix=/usr --extra-version=0ubuntu0.2 --toolchain=hardened --libdir=/usr/lib/x86_64-linux-gnu --incdir=/usr/include/x86_64-linux-gnu --enable-gpl --disable-stripping --enable-avresample --enable-avisynth --enable-gnutls --enable-ladspa --enable-libass --enable-libbluray --enable-libbs2b --enable-libcaca --enable-libcdio --enable-libflite --enable-libfontconfig --enable-libfreetype --enable-libfribidi --enable-libgme --enable-libgsm --enable-libmp3lame --enable-libmysofa --enable-libopenjpeg --enable-libopenmpt --enable-libopus --enable-libpulse --enable-librubberband --enable-librsvg --enable-libshine --enable-libsnappy --enable-libsoxr --enable-libspeex --enable-libssh --enable-libtheora --enable-libtwolame --enable-libvorbis --enable-libvpx --enable-libwavpack --enable-libwebp --enable-libx265 --enable-libxml2 --enable-libxvid --enable-libzmq --enable-libzvbi --enable-omx --enable-openal --enable-opengl --enable-sdl2 --enable-libdc1394 --enable-libdrm --enable-libiec61883 --enable-chromaprint --enable-frei0r --enable-libopencv --enable-libx264 --enable-shared
  libavutil      55. 78.100 / 55. 78.100
  libavcodec     57.107.100 / 57.107.100
  libavformat    57. 83.100 / 57. 83.100
  libavdevice    57. 10.100 / 57. 10.100
  libavfilter     6.107.100 /  6.107.100
  libavresample   3.  7.  0 /  3.  7.  0
  libswscale      4.  8.100 /  4.  8.100
  libswresample   2.  9.100 /  2.  9.100
  libpostproc    54.  7.100 / 54.  7.100
[rawvideo @ 0x5568f515ba20] Estimating duration from bitrate, this may be inaccurate
Input #0, rawvideo, from '../../SVC-Encoder-20220109T061506Z-001/SVC-Encoder/Dataset/RollerCoaster/ERP_8x8/tile_yuv/Tile_22_480x240.yuv':
  Duration: 00:00:10.00, start: 0.000000, bitrate: 41472 kb/s
    Stream #0:0: Video: rawvideo (I420 / 0x30323449), yuv420p, 480x240, 41472 kb/s, 30 tbr, 30 tbn, 30 tbc
Stream mapping:
  Stream #0:0 -> #0:0 (rawvideo (native) -> h264 (libx264))
Press [q] to stop, [?] for help
[libx264 @ 0x5568f5168c60] using cpu capabilities: MMX2 SSE2Fast LZCNT SSSE3 SSE4.2 AVX
[libx264 @ 0x5568f5168c60] profile High, level 2.1
Output #0, rawvideo, to 'RollerCoaster_Tile_22_480x240_x264_QP_36.h264':
  Metadata:
    encoder         : Lavf57.83.100
    Stream #0:0: Video: h264 (libx264), yuv420p, 480x240, q=-1--1, 30 fps, 30 tbn, 30 tbc
    Metadata:
      encoder         : Lavc57.107.100 libx264
    Side data:
      cpb: bitrate max/min/avg: 0/0/0 buffer size: 0 vbv_delay: -1
frame=  300 fps=0.0 q=42.0 LPSNR=Y:inf U:inf V:inf *:inf size=      13kB time=00:00:09.93 bitrate=  11.0kbits/s speed=30.2x    
video:13kB audio:0kB subtitle:0kB other streams:0kB global headers:0kB muxing overhead: 0.000000%
[libx264 @ 0x5568f5168c60] frame I:2     Avg QP:34.82  size:  1065  PSNR Mean Y:42.85 U:45.96 V:47.52 Avg:43.79 Global:43.78
[libx264 @ 0x5568f5168c60] frame P:76    Avg QP:37.08  size:    66  PSNR Mean Y:42.53 U:45.55 V:47.18 Avg:43.46 Global:43.44
[libx264 @ 0x5568f5168c60] frame B:222   Avg QP:41.62  size:    29  PSNR Mean Y:42.40 U:45.55 V:47.18 Avg:43.35 Global:43.33
[libx264 @ 0x5568f5168c60] consecutive B-frames:  1.0%  0.7%  1.0% 97.3%
[libx264 @ 0x5568f5168c60] mb I  I16..4: 14.4% 83.0%  2.6%
[libx264 @ 0x5568f5168c60] mb P  I16..4:  0.5%  1.1%  0.0%  P16..4:  3.9%  0.3%  0.0%  0.0%  0.0%    skip:94.3%
[libx264 @ 0x5568f5168c60] mb B  I16..4:  0.0%  0.0%  0.0%  B16..8:  2.6%  0.0%  0.0%  direct: 0.0%  skip:97.4%  L0:43.5% L1:56.5% BI: 0.0%
[libx264 @ 0x5568f5168c60] 8x8 transform intra:78.0% inter:92.2%
[libx264 @ 0x5568f5168c60] coded y,uvDC,uvAC intra: 4.5% 17.1% 0.0% inter: 0.0% 0.0% 0.0%
[libx264 @ 0x5568f5168c60] i16 v,h,dc,p: 49% 33%  8% 10%
[libx264 @ 0x5568f5168c60] i8 v,h,dc,ddl,ddr,vr,hd,vl,hu:  0%  9% 88%  1%  0%  0%  0%  0%  1%
[libx264 @ 0x5568f5168c60] i4 v,h,dc,ddl,ddr,vr,hd,vl,hu:  6% 29% 24% 20%  1%  0%  1%  1% 17%
[libx264 @ 0x5568f5168c60] i8c dc,h,v,p: 90%  7%  3%  0%
[libx264 @ 0x5568f5168c60] Weighted P-Frames: Y:0.0% UV:0.0%
[libx264 @ 0x5568f5168c60] ref P L0: 48.2% 17.8% 22.7% 11.3%
[libx264 @ 0x5568f5168c60] ref B L0: 57.1% 36.5%  6.4%
[libx264 @ 0x5568f5168c60] ref B L1: 73.0% 27.0%
[libx264 @ 0x5568f5168c60] PSNR Mean Y:42.432 U:45.555 V:47.185 Avg:43.378 Global:43.359 kb/s:10.92
